<COLLADA xmlns="http://www.collada.org/2005/11/COLLADASchema" version="1.4.1">
  <asset>
    <contributor/>
    <created>2024-10-22T16:29:27.797109</created>
    <modified>2024-10-22T16:29:27.797118</modified>
    <unit name="meter" meter="1.0"/>
    <up_axis>Z_UP</up_axis>
  </asset>
  <library_effects>
    <effect id="effect_Body" name="effect_Body">
      <profile_COMMON>
        <technique sid="common">
          <phong>
            <emission>
              <color>0.0 0.0 0.0 1.0</color>
            </emission>
            <ambient>
              <color>0.0 0.0 0.0 1.0</color>
            </ambient>
            <diffuse>
              <color>0.800000011920929 0.800000011920929 0.800000011920929 1.0</color>
            </diffuse>
            <specular>
              <color>1 1 1 1.0</color>
            </specular>
            <shininess>
              <float>0.0</float>
            </shininess>
            <reflective>
              <color>0.0 0.0 0.0 1.0</color>
            </reflective>
            <reflectivity>
              <float>0.0</float>
            </reflectivity>
            <transparent>
              <color>0.0 0.0 0.0 1.0</color>
            </transparent>
            <transparency>
              <float>1.0</float>
            </transparency>
          </phong>
        </technique>
        <extra>
          <technique profile="GOOGLEEARTH">
            <double_sided>0</double_sided>
          </technique>
        </extra>
      </profile_COMMON>
    </effect>
  </library_effects>
  <library_geometries>
    <geometry id="geometry0" name="Body">
      <mesh>
        <source id="cubeverts-array0">
          <float_array count="756" id="cubeverts-array0-array">0.005 0 0.25 0.005 0 0 0.004993784 0.0002492294 0.25 0.004993784 0.0002492294 0 0.004975154 0.0004978392 0.25 0.004975154 0.0004978392 0 0.004944154 0.0007452113 0 0.004944154 0.0007452113 0.25 0.004900862 0.0009907307 0 0.004900862 0.0009907307 0.25 0.004845387 0.001233787 0 0.004845387 0.001233787 0.25 0.004777864 0.001473776 0.25 0.004777864 0.001473776 0 0.004698463 0.001710101 0 0.004698463 0.001710101 0.25 0.004607381 0.001942174 0.25 0.004607381 0.001942174 0 0.004504844 0.002169419 0 0.004504844 0.002169419 0.25 0.004391108 0.00239127 0 0.004391108 0.00239127 0.25 0.004266454 0.002607176 0 0.004266454 0.002607176 0.25 0.004131194 0.0028166 0.25 0.004131194 0.0028166 0 0.003985662 0.003019022 0 0.003985662 0.003019022 0.25 0.003830222 0.003213938 0 0.003830222 0.003213938 0.25 0.003665259 0.003400864 0 0.003665259 0.003400864 0.25 0.003491184 0.003579334 0 0.003491184 0.003579334 0.25 0.003308429 0.003748906 0 0.003308429 0.003748906 0.25 0.003117449 0.003909158 0.25 0.003117449 0.003909158 0 0.002918718 0.00405969 0.25 0.002918718 0.00405969 0 0.002712731 0.00420013 0 0.002712731 0.00420013 0.25 0.0025 0.004330127 0.25 0.0025 0.004330127 0 0.002281053 0.004449359 0 0.002281053 0.004449359 0.25 0.002056436 0.004557529 0.25 0.002056436 0.004557529 0 0.001826705 0.004654369 0 0.001826705 0.004654369 0.25 0.001592433 0.004739637 0 0.001592433 0.004739637 0.25 0.001354202 0.004813121 0 0.001354202 0.004813121 0.25 0.001112605 0.00487464 0.25 0.001112605 0.00487464 0 0.0008682409 0.004924039 0 0.0008682409 0.004924039 0.25 0.0006217185 0.004961196 0.25 0.0006217185 0.004961196 0 0.0003736505 0.004986019 0 0.0003736505 0.004986019 0.25 0.0001246535 0.004998446 0.25 0.0001246535 0.004998446 0 -0.0001246535 0.004998446 0.25 -0.0001246535 0.004998446 0 -0.0003736505 0.004986019 0.25 -0.0003736505 0.004986019 0 -0.0006217185 0.004961196 0 -0.0006217185 0.004961196 0.25 -0.0008682409 0.004924039 0.25 -0.0008682409 0.004924039 0 -0.001112605 0.00487464 0.25 -0.001112605 0.00487464 0 -0.001354202 0.004813121 0 -0.001354202 0.004813121 0.25 -0.001592433 0.004739637 0.25 -0.001592433 0.004739637 0 -0.001826705 0.004654369 0 -0.001826705 0.004654369 0.25 -0.002056436 0.004557529 0 -0.002056436 0.004557529 0.25 -0.002281053 0.004449359 0 -0.002281053 0.004449359 0.25 -0.0025 0.004330127 0.25 -0.0025 0.004330127 0 -0.002712731 0.00420013 0 -0.002712731 0.00420013 0.25 -0.002918718 0.00405969 0 -0.002918718 0.00405969 0.25 -0.003117449 0.003909158 0 -0.003117449 0.003909158 0.25 -0.003308429 0.003748906 0 -0.003308429 0.003748906 0.25 -0.003491184 0.003579334 0.25 -0.003491184 0.003579334 0 -0.003665259 0.003400864 0.25 -0.003665259 0.003400864 0 -0.003830222 0.003213938 0 -0.003830222 0.003213938 0.25 -0.003985662 0.003019022 0 -0.003985662 0.003019022 0.25 -0.004131194 0.0028166 0 -0.004131194 0.0028166 0.25 -0.004266454 0.002607176 0 -0.004266454 0.002607176 0.25 -0.004391108 0.00239127 0 -0.004391108 0.00239127 0.25 -0.004504844 0.002169419 0 -0.004504844 0.002169419 0.25 -0.004607381 0.001942174 0.25 -0.004607381 0.001942174 0 -0.004698463 0.001710101 0 -0.004698463 0.001710101 0.25 -0.004777864 0.001473776 0 -0.004777864 0.001473776 0.25 -0.004845387 0.001233787 0.25 -0.004845387 0.001233787 0 -0.004900862 0.0009907307 0 -0.004900862 0.0009907307 0.25 -0.004944154 0.0007452113 0 -0.004944154 0.0007452113 0.25 -0.004975154 0.0004978392 0.25 -0.004975154 0.0004978392 0 -0.004993784 0.0002492294 0.25 -0.004993784 0.0002492294 0 -0.005 -1.715124e-17 0.25 -0.005 -1.715124e-17 0 -0.004993784 -0.0002492294 0 -0.004993784 -0.0002492294 0.25 -0.004975154 -0.0004978392 0.25 -0.004975154 -0.0004978392 0 -0.004944154 -0.0007452113 0 -0.004944154 -0.0007452113 0.25 -0.004900862 -0.0009907307 0 -0.004900862 -0.0009907307 0.25 -0.004845387 -0.001233787 0 -0.004845387 -0.001233787 0.25 -0.004777864 -0.001473776 0 -0.004777864 -0.001473776 0.25 -0.004698463 -0.001710101 0 -0.004698463 -0.001710101 0.25 -0.004607381 -0.001942174 0 -0.004607381 -0.001942174 0.25 -0.004504844 -0.002169419 0 -0.004504844 -0.002169419 0.25 -0.004391108 -0.00239127 0 -0.004391108 -0.00239127 0.25 -0.004266454 -0.002607176 0.25 -0.004266454 -0.002607176 0 -0.004131194 -0.0028166 0 -0.004131194 -0.0028166 0.25 -0.003985662 -0.003019022 0 -0.003985662 -0.003019022 0.25 -0.003830222 -0.003213938 0 -0.003830222 -0.003213938 0.25 -0.003665259 -0.003400864 0.25 -0.003665259 -0.003400864 0 -0.003491184 -0.003579334 0 -0.003491184 -0.003579334 0.25 -0.003308429 -0.003748906 0 -0.003308429 -0.003748906 0.25 -0.003117449 -0.003909158 0 -0.003117449 -0.003909158 0.25 -0.002918718 -0.00405969 0.25 -0.002918718 -0.00405969 0 -0.002712731 -0.00420013 0 -0.002712731 -0.00420013 0.25 -0.0025 -0.004330127 0 -0.0025 -0.004330127 0.25 -0.002281053 -0.004449359 0 -0.002281053 -0.004449359 0.25 -0.002056436 -0.004557529 0 -0.002056436 -0.004557529 0.25 -0.001826705 -0.004654369 0 -0.001826705 -0.004654369 0.25 -0.001592433 -0.004739637 0 -0.001592433 -0.004739637 0.25 -0.001354202 -0.004813121 0 -0.001354202 -0.004813121 0.25 -0.001112605 -0.00487464 0 -0.001112605 -0.00487464 0.25 -0.0008682409 -0.004924039 0 -0.0008682409 -0.004924039 0.25 -0.0006217185 -0.004961196 0 -0.0006217185 -0.004961196 0.25 -0.0003736505 -0.004986019 0 -0.0003736505 -0.004986019 0.25 -0.0001246535 -0.004998446 0 -0.0001246535 -0.004998446 0.25 0.0001246535 -0.004998446 0 0.0001246535 -0.004998446 0.25 0.0003736505 -0.004986019 0 0.0003736505 -0.004986019 0.25 0.0006217185 -0.004961196 0 0.0006217185 -0.004961196 0.25 0.0008682409 -0.004924039 0 0.0008682409 -0.004924039 0.25 0.001112605 -0.00487464 0.25 0.001112605 -0.00487464 0 0.001354202 -0.004813121 0.25 0.001354202 -0.004813121 0 0.001592433 -0.004739637 0 0.001592433 -0.004739637 0.25 0.001826705 -0.004654369 0 0.001826705 -0.004654369 0.25 0.002056436 -0.004557529 0 0.002056436 -0.004557529 0.25 0.002281053 -0.004449359 0 0.002281053 -0.004449359 0.25 0.0025 -0.004330127 0 0.0025 -0.004330127 0.25 0.002712731 -0.00420013 0 0.002712731 -0.00420013 0.25 0.002918718 -0.00405969 0 0.002918718 -0.00405969 0.25 0.003117449 -0.003909158 0 0.003117449 -0.003909158 0.25 0.003308429 -0.003748906 0 0.003308429 -0.003748906 0.25 0.003491184 -0.003579334 0 0.003491184 -0.003579334 0.25 0.003665259 -0.003400864 0 0.003665259 -0.003400864 0.25 0.003830222 -0.003213938 0 0.003830222 -0.003213938 0.25 0.003985662 -0.003019022 0 0.003985662 -0.003019022 0.25 0.004131194 -0.0028166 0 0.004131194 -0.0028166 0.25 0.004266454 -0.002607176 0 0.004266454 -0.002607176 0.25 0.004391108 -0.00239127 0 0.004391108 -0.00239127 0.25 0.004504844 -0.002169419 0 0.004504844 -0.002169419 0.25 0.004607381 -0.001942174 0 0.004607381 -0.001942174 0.25 0.004698463 -0.001710101 0.25 0.004698463 -0.001710101 0 0.004777864 -0.001473776 0 0.004777864 -0.001473776 0.25 0.004845387 -0.001233787 0.25 0.004845387 -0.001233787 0 0.004900862 -0.0009907307 0 0.004900862 -0.0009907307 0.25 0.004944154 -0.0007452113 0 0.004944154 -0.0007452113 0.25 0.004975154 -0.0004978392 0 0.004975154 -0.0004978392 0.25 0.004993784 -0.0002492294 0 0.004993784 -0.0002492294 0.25</float_array>
          <technique_common>
            <accessor count="252" source="#cubeverts-array0-array" stride="3">
              <param type="float" name="X"/>
              <param type="float" name="Y"/>
              <param type="float" name="Z"/>
            </accessor>
          </technique_common>
        </source>
        <source id="cubenormals-array0">
          <float_array count="1500" id="cubenormals-array0-array">0.9996892 0.02493141 0 0.9972039 0.0747292 0 0.9996892 0.02493141 0 0.9972039 0.0747292 0 0.9922392 0.1243434 0 0.9922392 0.1243434 -0 0.9848075 0.1736495 0 0.9848075 0.1736495 -0 0.9749281 0.2225198 0 0.9626241 0.2708409 0 0.9749281 0.2225198 -0 0.9626241 0.2708409 0 0.9479272 0.3184869 0 0.9308736 0.3653413 0 0.9479272 0.3184869 -0 0.9308736 0.3653413 0 0.911506 0.4112867 0 0.911506 0.4112867 -0 0.8898722 0.4562098 0 0.8898722 0.4562098 -0 0.8660248 0.500001 -0 0.8660248 0.500001 0 0.8400258 0.5425465 0 0.8400258 0.5425465 0 0.8119382 0.5837434 -0 0.8119382 0.5837434 0 0.7818314 0.6234898 -0 0.7818314 0.6234898 0 0.7497814 0.6616856 0 0.7497814 0.6616856 -0 0.7158667 0.6982369 0 0.7158667 0.6982369 -0 0.6801727 0.7330518 0 0.6427881 0.766044 0 0.6801727 0.7330518 -0 0.603804 0.7971328 0 0.6427881 0.766044 0 0.603804 0.7971328 0 0.56332 0.8262388 0 0.5214361 0.8532903 0 0.56332 0.8262388 -0 0.5214361 0.8532903 0 0.478253 0.8782221 0 0.4338847 0.9009684 0 0.478253 0.8782221 -0 0.4338847 0.9009684 0 0.3884345 0.9214764 0 0.3884345 0.9214764 -0 0.3420202 0.9396926 0 0.3420202 0.9396926 -0 0.294755 0.9555728 0 0.2467568 0.9690774 0 0.294755 0.9555728 -0 0.2467568 0.9690774 0 0.1981469 0.9801724 0 0.1490414 0.988831 0 0.1981469 0.9801724 -0 0.1490414 0.988831 0 0.09956878 0.9950306 0 0.0498456 0.9987569 0 0.09956878 0.9950306 -0 0 1 0 0.0498456 0.9987569 0 -0.0498456 0.9987569 0 0 1 0 -0.0498456 0.9987569 0 -0.09956878 0.9950306 0 -0.1490414 0.988831 0 -0.09956878 0.9950306 0 -0.1981469 0.9801724 0 -0.1490414 0.988831 0 -0.1981469 0.9801724 0 -0.2467568 0.9690774 0 -0.2467568 0.9690774 0 -0.294755 0.9555728 0 -0.294755 0.9555728 0 -0.3420202 0.9396926 0 -0.3420202 0.9396926 0 -0.3884345 0.9214764 0 -0.3884345 0.9214764 0 -0.4338847 0.9009684 0 -0.4338847 0.9009684 0 -0.478253 0.8782221 0 -0.478253 0.8782221 0 -0.5214361 0.8532903 0 -0.5214361 0.8532903 0 -0.56332 0.8262388 0 -0.56332 0.8262388 0 -0.603804 0.7971328 0 -0.603804 0.7971328 0 -0.6427881 0.766044 0 -0.6427881 0.766044 0 -0.6801727 0.7330518 0 -0.6801727 0.7330518 0 -0.7158667 0.6982369 0 -0.7158667 0.6982369 0 -0.7497814 0.6616856 0 -0.7497814 0.6616856 0 -0.7818314 0.6234898 0 -0.7818314 0.6234898 0 -0.8119382 0.5837434 0 -0.8119382 0.5837434 0 -0.8400258 0.5425465 0 -0.8400258 0.5425465 0 -0.8660248 0.500001 0 -0.8660248 0.500001 0 -0.8898722 0.4562098 0 -0.911506 0.4112867 0 -0.8898722 0.4562098 0 -0.911506 0.4112867 0 -0.9308736 0.3653413 0 -0.9308736 0.3653413 0 -0.9479272 0.3184869 0 -0.9626241 0.2708409 0 -0.9479272 0.3184869 0 -0.9626241 0.2708409 0 -0.9749281 0.2225198 0 -0.9749281 0.2225198 0 -0.9848075 0.1736495 0 -0.9922392 0.1243434 0 -0.9848075 0.1736495 0 -0.9972039 0.0747292 0 -0.9922392 0.1243434 0 -0.9972039 0.0747292 0 -0.9996892 0.02493141 0 -0.9996892 0.02493141 0 -0.9996892 -0.02493141 0 -0.9996892 -0.02493141 0 -0.9972039 -0.0747292 -0 -0.9972039 -0.0747292 0 -0.9922392 -0.1243434 0 -0.9922392 -0.1243434 0 -0.9848075 -0.1736495 0 -0.9848075 -0.1736495 0 -0.9749281 -0.2225198 0 -0.9749281 -0.2225198 0 -0.9626241 -0.2708409 0 -0.9626241 -0.2708409 0 -0.9479272 -0.3184869 0 -0.9479272 -0.3184869 0 -0.9308736 -0.3653413 0 -0.9308736 -0.3653413 0 -0.911506 -0.4112867 0 -0.911506 -0.4112867 0 -0.8898722 -0.4562098 0 -0.8898722 -0.4562098 0 -0.8660248 -0.500001 -0 -0.8660248 -0.500001 0 -0.8400258 -0.5425465 0 -0.8400258 -0.5425465 0 -0.8119382 -0.5837434 0 -0.8119382 -0.5837434 0 -0.7818314 -0.6234898 0 -0.7818314 -0.6234898 0 -0.7497814 -0.6616856 -0 -0.7497814 -0.6616856 0 -0.7158667 -0.6982369 0 -0.7158667 -0.6982369 0 -0.6801727 -0.7330518 0 -0.6801727 -0.7330518 0 -0.6427881 -0.766044 0 -0.6427881 -0.766044 0 -0.603804 -0.7971328 -0 -0.603804 -0.7971328 0 -0.56332 -0.8262388 0 -0.56332 -0.8262388 0 -0.5214361 -0.8532903 0 -0.5214361 -0.8532903 0 -0.478253 -0.8782221 0 -0.478253 -0.8782221 0 -0.4338847 -0.9009684 0 -0.4338847 -0.9009684 0 -0.3884345 -0.9214764 0 -0.3884345 -0.9214764 0 -0.3420202 -0.9396926 0 -0.3420202 -0.9396926 0 -0.294755 -0.9555728 0 -0.294755 -0.9555728 0 -0.2467568 -0.9690774 0 -0.2467568 -0.9690774 0 -0.1981469 -0.9801724 0 -0.1981469 -0.9801724 0 -0.1490414 -0.988831 0 -0.1490414 -0.988831 0 -0.09956878 -0.9950306 0 -0.09956878 -0.9950306 0 -0.0498456 -0.9987569 0 -0.0498456 -0.9987569 0 0 -1 0 0 -1 0 0.0498456 -0.9987569 0 0.0498456 -0.9987569 0 0.09956878 -0.9950306 0 0.09956878 -0.9950306 0 0.1490414 -0.988831 0 0.1490414 -0.988831 0 0.2467568 -0.9690774 0 0.1981469 -0.9801724 0 0.1981469 -0.9801724 0 0.2467568 -0.9690774 0 0.294755 -0.9555728 0 0.294755 -0.9555728 0 0.3420202 -0.9396926 0 0.3420202 -0.9396926 0 0.3884345 -0.9214764 0 0.3884345 -0.9214764 0 0.4338847 -0.9009684 0 0.4338847 -0.9009684 0 0.478253 -0.8782221 0 0.478253 -0.8782221 0 0.5214361 -0.8532903 0 0.5214361 -0.8532903 0 0.56332 -0.8262388 0 0.56332 -0.8262388 0 0.603804 -0.7971328 0 0.603804 -0.7971328 0 0.6427881 -0.766044 0 0.6427881 -0.766044 0 0.6801727 -0.7330518 0 0.6801727 -0.7330518 0 0.7158667 -0.6982369 0 0.7158667 -0.6982369 0 0.7497814 -0.6616856 0 0.7497814 -0.6616856 0 0.7818314 -0.6234898 0 0.7818314 -0.6234898 0 0.8119382 -0.5837434 0 0.8119382 -0.5837434 0 0.8400258 -0.5425465 0 0.8400258 -0.5425465 0 0.8660248 -0.500001 0 0.8660248 -0.500001 0 0.8898722 -0.4562098 0 0.8898722 -0.4562098 0 0.911506 -0.4112867 0 0.9308736 -0.3653413 0 0.911506 -0.4112867 0 0.9308736 -0.3653413 0 0.9479272 -0.3184869 0 0.9626241 -0.2708409 0 0.9479272 -0.3184869 0 0.9626241 -0.2708409 0 0.9749281 -0.2225198 0 0.9749281 -0.2225198 0 0.9848075 -0.1736495 0 0.9848075 -0.1736495 0 0.9922392 -0.1243434 0 0.9922392 -0.1243434 0 0.9972039 -0.0747292 0 0.9996892 -0.02493141 0 0.9972039 -0.0747292 0 0.9996892 -0.02493141 0 0 0 -1 0 0 -1 0 0 -1 0 0 -1 0 0 -1 0 0 -1 0 0 -1 0 0 -1 0 0 -1 0 0 -1 0 0 -1 0 0 -1 0 0 -1 0 0 -1 0 0 -1 0 0 -1 0 0 -1 0 0 -1 0 0 -1 0 0 -1 0 0 -1 0 0 -1 0 0 -1 0 0 -1 0 0 -1 0 0 -1 0 0 -1 0 0 -1 0 0 -1 0 0 -1 0 0 -1 0 0 -1 0 0 -1 0 -0 -1 0 -0 -1 0 -0 -1 0 -0 -1 0 0 -1 0 -0 -1 0 0 -1 0 0 -1 0 0 -1 0 0 -1 0 -0 -1 0 -0 -1 0 0 -1 0 0 -1 0 -0 -1 0 0 -1 0 -0 -1 0 -0 -1 0 -0 -1 0 0 -1 0 0 -1 0 0 -1 0 -0 -1 0 -0 -1 0 -0 -1 0 0 -1 0 0 -1 0 0 -1 0 0 -1 0 0 -1 0 -0 -1 0 -0 -1 0 0 -1 0 0 -1 0 0 -1 0 0 -1 0 0 -1 0 -0 -1 0 -0 -1 0 -0 -1 0 -0 -1 0 -0 -1 0 -0 -1 0 -0 -1 0 0 -1 0 -0 -1 0 -0 -1 0 0 -1 0 0 -1 0 0 -1 0 0 -1 0 -0 -1 0 0 -1 0 -0 -1 0 -0 -1 0 -0 -1 0 0 -1 0 0 -1 0 0 -1 0 0 -1 -0 -0 -1 0 0 -1 -0 -0 -1 -0 -0 -1 -0 -0 -1 -0 -0 -1 0 0 -1 0 0 -1 -0 -0 -1 0 0 -1 0 0 -1 0 0 -1 0 0 -1 0 0 -1 0 0 -1 0 -0 -1 -0 -0 -1 -0 -0 -1 -0 -0 -1 -0 -0 -1 -0 -0 -1 0 0 -1 0 0 -1 0 0 -1 0 0 -1 0 -0 -1 -0 -0 -1 0 0 -1 -0 -0 -1 -0 -0 -1 0 0 -1 0 0 1 0 0 1 0 0 1 0 0 1 0 0 1 0 0 1 0 0 1 0 0 1 0 0 1 0 0 1 0 0 1 0 0 1 0 0 1 0 0 1 0 0 1 0 0 1 0 0 1 0 0 1 0 0 1 0 0 1 0 0 1 0 0 1 0 0 1 0 0 1 0 0 1 0 0 1 0 0 1 0 0 1 0 0 1 0 0 1 0 0 1 0 0 1 0 0 1 0 0 1 0 0 1 0 0 1 0 0 1 0 0 1 0 0 1 0 0 1 0 0 1 0 0 1 0 0 1 0 0 1 0 0 1 0 0 1 0 0 1 0 0 1 0 0 1 0 0 1 0 0 1 0 0 1 0 0 1 0 0 1 0 0 1 0 0 1 0 0 1 0 0 1 0 0 1 0 0 1 0 0 1 0 0 1 0 0 1 0 0 1 0 0 1 0 0 1 0 0 1 0 0 1 0 0 1 0 0 1 0 0 1 0 0 1 0 0 1 0 0 1 0 0 1 0 0 1 0 0 1 0 0 1 0 0 1 0 0 1 0 0 1 0 0 1 0 0 1 0 0 1 0 0 1 0 0 1 0 0 1 0 0 1 0 0 1 0 0 1 0 0 1 0 0 1 0 0 1 0 0 1 0 0 1 0 0 1 0 0 1 0 0 1 0 0 1 0 0 1 0 0 1 0 0 1 0 0 1 0 0 1 0 0 1 0 0 1 0 0 1 0 0 1 0 0 1 0 0 1 0 0 1 0 0 1 0 0 1 0 0 1 0 0 1 0 0 1 0 0 1 0 0 1 0 0 1 0 0 1 0 0 1 0 0 1 0 0 1 0 0 1</float_array>
          <technique_common>
            <accessor count="500" source="#cubenormals-array0-array" stride="3">
              <param type="float" name="X"/>
              <param type="float" name="Y"/>
              <param type="float" name="Z"/>
            </accessor>
          </technique_common>
        </source>
        <vertices id="cubeverts-array0-vertices">
          <input semantic="POSITION" source="#cubeverts-array0"/>
        </vertices>
        <triangles count="500" material="ref_Body">
          <input offset="0" semantic="VERTEX" source="#cubeverts-array0-vertices"/>
          <input offset="1" semantic="NORMAL" source="#cubenormals-array0"/>
          <p>0 0 1 0 2 0 2 1 3 1 4 1 1 2 3 2 2 2 3 3 5 3 4 3 4 4 6 4 7 4 5 5 6 5 4 5 7 6 8 6 9 6 6 7 8 7 7 7 9 8 10 8 11 8 11 9 10 9 12 9 8 10 10 10 9 10 10 11 13 11 12 11 12 12 14 12 15 12 15 13 14 13 16 13 13 14 14 14 12 14 14 15 17 15 16 15 16 16 18 16 19 16 17 17 18 17 16 17 19 18 20 18 21 18 18 19 20 19 19 19 20 20 22 20 21 20 21 21 22 21 23 21 23 22 22 22 24 22 22 23 25 23 24 23 25 24 26 24 24 24 24 25 26 25 27 25 26 26 28 26 27 26 27 27 28 27 29 27 29 28 30 28 31 28 28 29 30 29 29 29 31 30 32 30 33 30 30 31 32 31 31 31 33 32 34 32 35 32 35 33 34 33 36 33 32 34 34 34 33 34 36 35 37 35 38 35 34 36 37 36 36 36 37 37 39 37 38 37 38 38 40 38 41 38 41 39 40 39 42 39 39 40 40 40 38 40 40 41 43 41 42 41 42 42 44 42 45 42 45 43 44 43 46 43 43 44 44 44 42 44 44 45 47 45 46 45 46 46 48 46 49 46 47 47 48 47 46 47 49 48 50 48 51 48 48 49 50 49 49 49 51 50 52 50 53 50 53 51 52 51 54 51 50 52 52 52 51 52 52 53 55 53 54 53 54 54 56 54 57 54 57 55 56 55 58 55 55 56 56 56 54 56 56 57 59 57 58 57 58 58 60 58 61 58 61 59 60 59 62 59 59 60 60 60 58 60 62 61 63 61 64 61 60 62 63 62 62 62 64 63 65 63 66 63 63 64 65 64 64 64 65 65 67 65 66 65 66 66 68 66 69 66 69 67 68 67 70 67 67 68 68 68 66 68 70 69 71 69 72 69 68 70 71 70 70 70 71 71 73 71 72 71 73 72 74 72 72 72 72 73 74 73 75 73 75 74 74 74 76 74 74 75 77 75 76 75 77 76 78 76 76 76 76 77 78 77 79 77 78 78 80 78 79 78 79 79 80 79 81 79 80 80 82 80 81 80 81 81 82 81 83 81 83 82 82 82 84 82 82 83 85 83 84 83 85 84 86 84 84 84 84 85 86 85 87 85 86 86 88 86 87 86 87 87 88 87 89 87 88 88 90 88 89 88 89 89 90 89 91 89 90 90 92 90 91 90 91 91 92 91 93 91 93 92 92 92 94 92 92 93 95 93 94 93 94 94 95 94 96 94 95 95 97 95 96 95 96 96 98 96 99 96 97 97 98 97 96 97 99 98 100 98 101 98 98 99 100 99 99 99 101 100 102 100 103 100 100 101 102 101 101 101 103 102 104 102 105 102 102 103 104 103 103 103 105 104 106 104 107 104 104 105 106 105 105 105 107 106 108 106 109 106 109 107 108 107 110 107 106 108 108 108 107 108 108 109 111 109 110 109 110 110 112 110 113 110 111 111 112 111 110 111 113 112 114 112 115 112 115 113 114 113 116 113 112 114 114 114 113 114 114 115 117 115 116 115 116 116 118 116 119 116 117 117 118 117 116 117 119 118 120 118 121 118 121 119 120 119 122 119 118 120 120 120 119 120 122 121 123 121 124 121 120 122 123 122 122 122 123 123 125 123 124 123 124 124 125 124 126 124 125 125 127 125 126 125 127 126 128 126 126 126 126 127 128 127 129 127 129 128 128 128 130 128 128 129 131 129 130 129 131 130 132 130 130 130 130 131 132 131 133 131 132 132 134 132 133 132 133 133 134 133 135 133 134 134 136 134 135 134 135 135 136 135 137 135 136 136 138 136 137 136 137 137 138 137 139 137 138 138 140 138 139 138 139 139 140 139 141 139 140 140 142 140 141 140 141 141 142 141 143 141 142 142 144 142 143 142 143 143 144 143 145 143 144 144 146 144 145 144 145 145 146 145 147 145 147 146 146 146 148 146 146 147 149 147 148 147 149 148 150 148 148 148 148 149 150 149 151 149 150 150 152 150 151 150 151 151 152 151 153 151 152 152 154 152 153 152 153 153 154 153 155 153 155 154 154 154 156 154 154 155 157 155 156 155 157 156 158 156 156 156 156 157 158 157 159 157 158 158 160 158 159 158 159 159 160 159 161 159 160 160 162 160 161 160 161 161 162 161 163 161 163 162 162 162 164 162 162 163 165 163 164 163 164 164 166 164 167 164 165 165 166 165 164 165 167 166 168 166 169 166 166 167 168 167 167 167 169 168 170 168 171 168 168 169 170 169 169 169 171 170 172 170 173 170 170 171 172 171 171 171 173 172 174 172 175 172 172 173 174 173 173 173 174 174 176 174 175 174 175 175 176 175 177 175 176 176 178 176 177 176 177 177 178 177 179 177 178 178 180 178 179 178 179 179 180 179 181 179 180 180 182 180 181 180 181 181 182 181 183 181 182 182 184 182 183 182 183 183 184 183 185 183 184 184 186 184 185 184 185 185 186 185 187 185 186 186 188 186 187 186 187 187 188 187 189 187 188 188 190 188 189 188 189 189 190 189 191 189 190 190 192 190 191 190 191 191 192 191 193 191 192 192 194 192 193 192 193 193 194 193 195 193 194 194 196 194 195 194 195 195 196 195 197 195 198 196 199 196 200 196 196 197 199 197 197 197 197 198 199 198 198 198 199 199 201 199 200 199 200 200 202 200 203 200 201 201 202 201 200 201 203 202 204 202 205 202 202 203 204 203 203 203 205 204 206 204 207 204 204 205 206 205 205 205 207 206 208 206 209 206 206 207 208 207 207 207 209 208 210 208 211 208 208 209 210 209 209 209 211 210 212 210 213 210 210 211 212 211 211 211 213 212 214 212 215 212 212 213 214 213 213 213 215 214 216 214 217 214 214 215 216 215 215 215 217 216 218 216 219 216 216 217 218 217 217 217 219 218 220 218 221 218 218 219 220 219 219 219 221 220 222 220 223 220 220 221 222 221 221 221 223 222 224 222 225 222 222 223 224 223 223 223 224 224 226 224 225 224 225 225 226 225 227 225 226 226 228 226 227 226 227 227 228 227 229 227 228 228 230 228 229 228 229 229 230 229 231 229 230 230 232 230 231 230 231 231 232 231 233 231 233 232 234 232 235 232 232 233 234 233 233 233 235 234 236 234 237 234 237 235 236 235 238 235 234 236 236 236 235 236 236 237 239 237 238 237 238 238 240 238 241 238 241 239 240 239 242 239 239 240 240 240 238 240 240 241 243 241 242 241 242 242 244 242 245 242 243 243 244 243 242 243 245 244 246 244 247 244 244 245 246 245 245 245 247 246 248 246 249 246 246 247 248 247 247 247 249 248 250 248 251 248 251 249 250 249 0 249 248 250 250 250 249 250 250 251 1 251 0 251 157 252 162 252 158 252 158 253 162 253 160 253 157 254 152 254 162 254 154 255 152 255 157 255 152 256 166 256 162 256 162 257 166 257 165 257 166 258 170 258 168 258 146 259 144 259 149 259 144 260 142 260 149 260 149 261 142 261 150 261 150 262 142 262 152 262 166 263 178 263 170 263 170 264 178 264 172 264 172 265 178 265 174 265 174 266 178 266 176 266 152 267 136 267 166 267 142 268 136 268 152 268 138 269 136 269 140 269 140 270 136 270 142 270 166 271 182 271 178 271 178 272 182 272 180 272 134 273 132 273 136 273 131 274 128 274 132 274 127 275 125 275 128 275 128 276 125 276 132 276 188 277 192 277 190 277 166 278 196 278 182 278 182 279 196 279 184 279 184 280 196 280 186 280 186 281 196 281 188 281 192 282 196 282 194 282 188 283 196 283 192 283 166 284 199 284 196 284 118 285 117 285 120 285 120 286 117 286 123 286 117 287 114 287 123 287 123 288 114 288 125 288 199 289 202 289 201 289 114 290 112 290 125 290 132 291 112 291 136 291 125 292 112 292 132 292 199 293 204 293 202 293 199 294 206 294 204 294 112 295 108 295 136 295 111 296 108 296 112 296 199 297 208 297 206 297 199 298 210 298 208 298 106 299 104 299 108 299 199 300 212 300 210 300 102 301 100 301 104 301 104 302 98 302 108 302 100 303 98 303 104 303 199 304 218 304 212 304 212 305 218 305 214 305 214 306 218 306 216 306 98 307 97 307 108 307 108 308 97 308 136 308 97 309 95 309 136 309 218 310 222 310 220 310 199 311 222 311 218 311 222 312 228 312 224 312 224 313 228 313 226 313 222 314 230 314 228 314 86 315 85 315 88 315 88 316 85 316 90 316 222 317 232 317 230 317 199 318 234 318 222 318 222 319 234 319 232 319 166 320 236 320 199 320 199 321 236 321 234 321 80 322 78 322 82 322 82 323 78 323 85 323 90 324 78 324 92 324 85 325 78 325 90 325 77 326 74 326 78 326 92 327 74 327 95 327 78 328 74 328 92 328 239 329 243 329 240 329 95 330 73 330 136 330 74 331 73 331 95 331 236 332 244 332 239 332 166 333 244 333 236 333 136 334 244 334 166 334 239 335 244 335 243 335 71 336 68 336 73 336 244 337 248 337 246 337 68 338 65 338 73 338 67 339 65 339 68 339 65 340 63 340 73 340 136 341 3 341 244 341 244 342 3 342 248 342 248 343 3 343 250 343 250 344 3 344 1 344 60 345 59 345 63 345 3 346 6 346 5 346 59 347 56 347 63 347 52 348 50 348 55 348 56 349 50 349 63 349 55 350 50 350 56 350 8 351 14 351 10 351 10 352 14 352 13 352 48 353 47 353 50 353 14 354 18 354 17 354 6 355 25 355 8 355 18 356 25 356 20 356 20 357 25 357 22 357 8 358 25 358 14 358 14 359 25 359 18 359 63 360 39 360 73 360 40 361 39 361 43 361 43 362 39 362 44 362 44 363 39 363 47 363 50 364 39 364 63 364 47 365 39 365 50 365 25 366 28 366 26 366 136 367 28 367 3 367 3 368 28 368 6 368 6 369 28 369 25 369 73 370 28 370 136 370 37 371 34 371 39 371 28 372 32 372 30 372 34 373 32 373 39 373 39 374 32 374 73 374 73 375 32 375 28 375 163 376 156 376 159 376 163 377 159 377 161 377 153 378 156 378 163 378 153 379 155 379 156 379 167 380 153 380 163 380 167 381 163 381 164 381 171 382 167 382 169 382 145 383 147 383 148 383 143 384 145 384 148 384 143 385 148 385 151 385 143 386 151 386 153 386 179 387 167 387 171 387 179 388 171 388 173 388 179 389 173 389 175 389 179 390 175 390 177 390 137 391 153 391 167 391 137 392 143 392 153 392 137 393 139 393 141 393 137 394 141 394 143 394 183 395 167 395 179 395 183 396 179 396 181 396 133 397 135 397 137 397 129 398 130 398 133 398 124 399 126 399 129 399 124 400 129 400 133 400 193 401 189 401 191 401 197 402 167 402 183 402 197 403 183 403 185 403 197 404 185 404 187 404 197 405 187 405 189 405 197 406 193 406 195 406 197 407 189 407 193 407 198 408 167 408 197 408 116 409 119 409 121 409 116 410 121 410 122 410 115 411 116 411 122 411 115 412 122 412 124 412 203 413 198 413 200 413 113 414 115 414 124 414 113 415 133 415 137 415 113 416 124 416 133 416 205 417 198 417 203 417 207 418 198 418 205 418 109 419 113 419 137 419 109 420 110 420 113 420 209 421 198 421 207 421 211 422 198 422 209 422 105 423 107 423 109 423 213 424 198 424 211 424 101 425 103 425 105 425 99 426 105 426 109 426 99 427 101 427 105 427 219 428 198 428 213 428 219 429 213 429 215 429 219 430 215 430 217 430 96 431 99 431 109 431 96 432 109 432 137 432 94 433 96 433 137 433 223 434 219 434 221 434 223 435 198 435 219 435 229 436 223 436 225 436 229 437 225 437 227 437 231 438 223 438 229 438 84 439 87 439 89 439 84 440 89 440 91 440 233 441 223 441 231 441 235 442 198 442 223 442 235 443 223 443 233 443 237 444 167 444 198 444 237 445 198 445 235 445 79 446 81 446 83 446 79 447 83 447 84 447 79 448 91 448 93 448 79 449 84 449 91 449 75 450 76 450 79 450 75 451 93 451 94 451 75 452 79 452 93 452 242 453 238 453 241 453 72 454 94 454 137 454 72 455 75 455 94 455 245 456 237 456 238 456 245 457 167 457 237 457 245 458 137 458 167 458 245 459 238 459 242 459 69 460 70 460 72 460 249 461 245 461 247 461 64 462 69 462 72 462 64 463 66 463 69 463 62 464 64 464 72 464 2 465 137 465 245 465 2 466 245 466 249 466 2 467 249 467 251 467 2 468 251 468 0 468 58 469 61 469 62 469 7 470 2 470 4 470 57 471 58 471 62 471 51 472 53 472 54 472 51 473 57 473 62 473 51 474 54 474 57 474 15 475 9 475 11 475 15 476 11 476 12 476 46 477 49 477 51 477 19 478 15 478 16 478 24 479 7 479 9 479 24 480 19 480 21 480 24 481 21 481 23 481 24 482 9 482 15 482 24 483 15 483 19 483 38 484 62 484 72 484 38 485 41 485 42 485 38 486 42 486 45 486 38 487 45 487 46 487 38 488 51 488 62 488 38 489 46 489 51 489 29 490 24 490 27 490 29 491 137 491 2 491 29 492 2 492 7 492 29 493 7 493 24 493 29 494 72 494 137 494 35 495 36 495 38 495 33 496 29 496 31 496 33 497 35 497 38 497 33 498 38 498 72 498 33 499 72 499 29 499</p>
        </triangles>
      </mesh>
    </geometry>
  </library_geometries>
  <library_materials>
    <material id="mat_Body" name="Body">
      <instance_effect url="#effect_Body"/>
    </material>
  </library_materials>
  <library_visual_scenes>
    <visual_scene id="myscene">
      <node id="node0" name="node0">
        <instance_geometry url="#geometry0">
          <bind_material>
            <technique_common>
              <instance_material symbol="ref_Body" target="#mat_Body"/>
            </technique_common>
          </bind_material>
        </instance_geometry>
      </node>
    </visual_scene>
  </library_visual_scenes>
  <scene>
    <instance_visual_scene url="#myscene"/>
  </scene>
</COLLADA>
